<?xml version="1.0" encoding="utf-8"?>
<?xml-stylesheet type="text/xsl" href="rss1.xsl"?>
<rss version="2.0" xmlns:atom="http://www.w3.org/2005/Atom" xmlns:content="http://purl.org/rss/1.0/modules/content/" xmlns:dc="http://purl.org/dc/elements/1.1/" xmlns:media="http://search.yahoo.com/mrss/">
<channel>
 <title>Getty</title>
 <link>http://www.gettyimg.com/</link>
 <atom:link href="http://www.gettyimg.com/" rel="self" type="application/rss+xml" />

 
                <item>
                <title><![CDATA[【Requests】[REQ AUD] - Hannah Montana - I'm Still Good (Promo CD)]]></title>
                <link><![CDATA[https://sharemania.us/threads/hannah-montana-im-still-good-promo-cd.222920/]]></link>
                <description><![CDATA[<article>
<blockquote class="messageText SelectQuoteContainer ugc baseHtml">
Could someone get me this CD:<br>
<br>
<a href="https://sharemania.us/threads/hannah-montana-im-still-good-promo-cd.118816/" class="internalLink">https://sharemania.us/threads/hannah-montana-im-still-good-promo-cd.118816/</a>
<div class="messageTextEndMarker">&nbsp;</div>
</blockquote>
</article>]]></description>
                <author><![CDATA[Taylorsweetallyson]]></author>
                </item>

                
                <item>
                <title><![CDATA[【Cinema Center】SERIES - Dollhouse 2009 BluRay 1080p x264 FraMeSToR-MIXED [rartv]]]></title>
                <link><![CDATA[https://sharemania.us/threads/dollhouse-2009-bluray-1080p-x264-framestor-mixed-rartv.222921/]]></link>
                <description><![CDATA[<article>
<blockquote class="messageText SelectQuoteContainer ugc baseHtml">
<img src="https://streamondemandathome.com/wp-content/uploads/2021/09/dollhouse.jpg" class="bbCodeImage LbImage" alt="[​IMG]" data-url="https://streamondemandathome.com/wp-content/uploads/2021/09/dollhouse.jpg" style=""><br>
<br>
<b><i>Downloaded from Torrent<br>
<br>
<span style="text-decoration: underline">Host: Telegram</span><br>
<br>
Season 1:
<div class="bbCodeBlock bbCodeVfcHH HiddenContent">
<div class="attribution type">Hidden Content:</div>
<blockquote>You must reply before you can see the hidden data contained here.</blockquote>
</div>Season 2:
<div class="bbCodeBlock bbCodeVfcHH HiddenContent">
<div class="attribution type">Hidden Content:</div>
<blockquote>You must reply before you can see the hidden data contained here.</blockquote>
</div></i></b>
<div class="messageTextEndMarker">&nbsp;</div>
</blockquote>
</article>]]></description>
                <author><![CDATA[alrl]]></author>
                </item>

                
                <item>
                <title><![CDATA[【Cinema Center】SERIES - The Strain 2014 S01-S02-S03 BluRay x264-ROVERS-S04 AMZN.WEBRip.DDP5.1.x264 1080p -NTb [rartv]]]></title>
                <link><![CDATA[https://sharemania.us/threads/the-strain-2014-s01-s02-s03-bluray-x264-rovers-s04-amzn-webrip-ddp5-1-x264-1080p-ntb-rartv.222918/]]></link>
                <description><![CDATA[<article>
<blockquote class="messageText SelectQuoteContainer ugc baseHtml">
<img src="https://www.themoviedb.org/t/p/original/tE0qcZkjyiu9KXqJoZd5ie6JynO.jpg" class="bbCodeImage LbImage" alt="[​IMG]" data-url="https://www.themoviedb.org/t/p/original/tE0qcZkjyiu9KXqJoZd5ie6JynO.jpg" style=""> <br>
<br>
<b><i>Downloaded from Torrent.<br>
<br>
Seasons 1,2,3 are from Bluray<br>
Season 4 are from AMAZON PRIME<br>
<br>
<span style="text-decoration: underline">Host: Telegram</span></i></b><br>
<br>
<b>Season 1:
<div class="bbCodeBlock bbCodeVfcHH HiddenContent">
<div class="attribution type">Hidden Content:</div>
<blockquote>You must reply before you can see the hidden data contained here.</blockquote>
</div>Season 2:
<div class="bbCodeBlock bbCodeVfcHH HiddenContent">
<div class="attribution type">Hidden Content:</div>
<blockquote>You must reply before you can see the hidden data contained here.</blockquote>
</div>Season 3:
<div class="bbCodeBlock bbCodeVfcHH HiddenContent">
<div class="attribution type">Hidden Content:</div>
<blockquote>You must reply before you can see the hidden data contained here.</blockquote>
</div>Season 4:
<div class="bbCodeBlock bbCodeVfcHH HiddenContent">
<div class="attribution type">Hidden Content:</div>
<blockquote>You must reply before you can see the hidden data contained here.</blockquote>
</div></b>
<div class="messageTextEndMarker">&nbsp;</div>
</blockquote>
</article>]]></description>
                <author><![CDATA[alrl]]></author>
                </item>

                
                <item>
                <title><![CDATA[【HD Live Performances】FEED - Bebe Rexha - I'm A Mess &amp; Meant to Be ft. Glennis Grace - America's Got Talent S13E24 1080i HDTV Backhaul FLAC 5.1 H.264-TrollHD]]></title>
                <link><![CDATA[https://sharemania.us/threads/bebe-rexha-im-a-mess-meant-to-be-ft-glennis-grace-americas-got-talent-s13e24-1080i-hdtv-backhaul-flac-5-1-h-264-trollhd.222916/]]></link>
                <description><![CDATA[<article>
<blockquote class="messageText SelectQuoteContainer ugc baseHtml">
<div style="padding-left: 30px"><b><span style="color: rgb(255, 0, 0)"><span style="font-size: 10px">Bebe Rexha - I'm A Mess &amp; Meant to Be ft. Glennis Grace - America's Got Talent S13E24 1080i HDTV Backhaul FLAC 5.1 H.264-TrollHD</span></span></b>​</div><br>
<img src="https://images2.imgbox.com/51/3d/1GDvwOmc_o.jpg" class="bbCodeImage LbImage" alt="[​IMG]" data-url="https://images2.imgbox.com/51/3d/1GDvwOmc_o.jpg" style=""><br>
<br>
<div class="bbCodeBlock bbCodeCode">
<div class="type">Code:</div>
<pre>General
Unique ID                      : 233756499150502191857823461585898637943 (0xAFDBDD3856ABB245EE9B285BEECF0A77)
Format                         : Matroska
Format version                 : Version 4
File size                      : 722 MiB
Duration                       : 3 min 2 s
Overall bit rate mode          : Variable
Overall bit rate               : 33.1 Mb/s
Encoded date                   : UTC 2023-06-18 21:15:47
Writing application            : mkvmerge v30.0.0 ('Interstellar') 64-bit
Writing library                : libebml v1.3.6 + libmatroska v1.4.9

Video
ID                             : 1
Format                         : AVC
Format/Info                    : Advanced Video Codec
Format profile                 : High@L4.1
Format settings                : 3 Ref Frames
Format settings, CABAC         : No
Format settings, Reference fra : 3 frames
Codec ID                       : V_MPEG4/ISO/AVC
Duration                       : 3 min 2 s
Bit rate mode                  : Constant
Bit rate                       : 31.3 Mb/s
Width                          : 1 920 pixels
Height                         : 1 080 pixels
Display aspect ratio           : 16:9
Frame rate mode                : Variable
Frame rate                     : 59.940 (60000/1001) FPS
Original frame rate            : 29.970 (30000/1001) FPS
Color space                    : YUV
Chroma subsampling             : 4:2:0
Bit depth                      : 8 bits
Scan type                      : Interlaced
Scan type, store method        : Separated fields
Scan order                     : Top Field First
Bits/(Pixel*Frame)             : 0.252
Stream size                    : 682 MiB (94%)
Default                        : Yes
Forced                         : No
Color range                    : Limited
Color primaries                : BT.709
Transfer characteristics       : BT.709
Matrix coefficients            : BT.709

Audio
ID                             : 2
Format                         : FLAC
Format/Info                    : Free Lossless Audio Codec
Codec ID                       : A_FLAC
Duration                       : 3 min 2 s
Bit rate mode                  : Variable
Bit rate                       : 1 845 kb/s
Channel(s)                     : 6 channels
Channel layout                 : L R C LFE Ls Rs
Sampling rate                  : 48.0 kHz
Frame rate                     : 11.719 FPS (4096 SPF)
Bit depth                      : 16 bits
Compression mode               : Lossless
Delay relative to video        : 143 ms
Stream size                    : 40.2 MiB (6%)
Writing library                : libFLAC 1.3.1 (UTC 2014-11-25)
Language                       : English
Default                        : Yes
Forced                         : No

</pre>
</div>
<div class="bbCodeBlock bbCodeVfcHH HiddenContent">
<div class="attribution type">Hidden Content:</div>
<blockquote>You must either reply or click 'Like' to see the hidden information contained here.</blockquote>
</div><br>
<br>
<b><span style="color: rgb(255, 0, 0)">Credits goes to <a href="https://sharemania.us/members/1219/" class="username" data-user="1219, @TrollHD">@TrollHD</a> !!!<br>
<br>
<img src="styles/default/xenforo/smilies/super_man-48.png" class="mceSmilie" alt=":super:" title="Super Man    :super:"><img src="styles/default/xenforo/smilies/super_man-48.png" class="mceSmilie" alt=":super:" title="Super Man    :super:"><img src="styles/default/xenforo/smilies/super_man-48.png" class="mceSmilie" alt=":super:" title="Super Man    :super:"></span></b>
<div class="messageTextEndMarker">&nbsp;</div>
</blockquote>
</article>]]></description>
                <author><![CDATA[Dream66]]></author>
                </item>

                
                <item>
                <title><![CDATA[【Music Videos】Janet Jackson - MTV TOP 10 (FAN MADE)]]></title>
                <link><![CDATA[https://sharemania.us/threads/janet-jackson-mtv-top-10-fan-made.222917/]]></link>
                <description><![CDATA[<article>
<blockquote class="messageText SelectQuoteContainer ugc baseHtml">
<div style="text-align: center"><img src="https://i.postimg.cc/R0Thd8Pg/JANET-TOP-10-BY-NOVAK.jpg" class="bbCodeImage LbImage" alt="[​IMG]" data-url="https://i.postimg.cc/R0Thd8Pg/JANET-TOP-10-BY-NOVAK.jpg" style=""> <br>
<img src="https://i.postimg.cc/mDwVZzzw/Janet-Jackson-MTV-TOP-10-2023-Fan-Made-mp4-thumbs.jpg" class="bbCodeImage LbImage" alt="[​IMG]" data-url="https://i.postimg.cc/mDwVZzzw/Janet-Jackson-MTV-TOP-10-2023-Fan-Made-mp4-thumbs.jpg" style=""> ​</div>10. "Made For Now" Featuring Daddy Yankee<br>
09. "Doesn't Really Matter" <br>
08. "Someone To Call My Lover"<br>
07. "Come Back To Me"<br>
06. "All For You"<br>
05. "Love Will Never Do (Without You)"<br>
04. "Feedback"<br>
03. "Call On Me" Featuring Nelly<br>
02. "Black Cat"<br>
01. "Together Again"<br>
<div style="text-align: center"><br>
<div class="bbCodeBlock bbCodeVfcHH HiddenContent">
<div class="attribution type">Hidden Content:</div>
<blockquote>You must either reply or click 'Like' to see the hidden information contained here.</blockquote>
</div></div>
<div class="messageTextEndMarker">&nbsp;</div>
</blockquote>
</article>]]></description>
                <author><![CDATA[Fan Made]]></author>
                </item>

                
                <item>
                <title><![CDATA[【HD Live Performances】FEED - KISS - Detroit Rock City - America's Got Talent S13E24 1080i HDTV Backhaul FLAC 5.1 H.264-TrollHD]]></title>
                <link><![CDATA[https://sharemania.us/threads/kiss-detroit-rock-city-americas-got-talent-s13e24-1080i-hdtv-backhaul-flac-5-1-h-264-trollhd.222919/]]></link>
                <description><![CDATA[<article>
<blockquote class="messageText SelectQuoteContainer ugc baseHtml">
<div style="padding-left: 30px"><b><span style="color: rgb(255, 0, 0)"><span style="font-size: 12px">KISS - Detroit Rock - City America's Got Talent S13E24 1080i HDTV Backhaul FLAC 5.1 H.264-TrollHD</span></span></b>​</div><br>
<img src="https://images2.imgbox.com/67/e5/5PsC9TRC_o.jpg" class="bbCodeImage LbImage" alt="[​IMG]" data-url="https://images2.imgbox.com/67/e5/5PsC9TRC_o.jpg" style=""><br>
<br>
<div class="bbCodeBlock bbCodeCode">
<div class="type">Code:</div>
<pre>General
Unique ID                      : 185219335966536930762237907416104852901 (0x8B57F2508F590C7250A974201B445DA5)
Format                         : Matroska
Format version                 : Version 4
File size                      : 777 MiB
Duration                       : 3 min 15 s
Overall bit rate mode          : Variable
Overall bit rate               : 33.3 Mb/s
Encoded date                   : UTC 2023-06-18 21:08:08
Writing application            : mkvmerge v30.0.0 ('Interstellar') 64-bit
Writing library                : libebml v1.3.6 + libmatroska v1.4.9

Video
ID                             : 1
Format                         : AVC
Format/Info                    : Advanced Video Codec
Format profile                 : High@L4.1
Format settings                : 3 Ref Frames
Format settings, CABAC         : No
Format settings, Reference fra : 3 frames
Codec ID                       : V_MPEG4/ISO/AVC
Duration                       : 3 min 15 s
Bit rate mode                  : Constant
Bit rate                       : 31.3 Mb/s
Width                          : 1 920 pixels
Height                         : 1 080 pixels
Display aspect ratio           : 16:9
Frame rate mode                : Variable
Frame rate                     : 59.940 (60000/1001) FPS
Original frame rate            : 29.970 (30000/1001) FPS
Color space                    : YUV
Chroma subsampling             : 4:2:0
Bit depth                      : 8 bits
Scan type                      : Interlaced
Scan type, store method        : Separated fields
Scan order                     : Top Field First
Bits/(Pixel*Frame)             : 0.252
Stream size                    : 731 MiB (94%)
Default                        : Yes
Forced                         : No
Color range                    : Limited
Color primaries                : BT.709
Transfer characteristics       : BT.709
Matrix coefficients            : BT.709

Audio
ID                             : 2
Format                         : FLAC
Format/Info                    : Free Lossless Audio Codec
Codec ID                       : A_FLAC
Duration                       : 3 min 15 s
Bit rate mode                  : Variable
Bit rate                       : 1 995 kb/s
Channel(s)                     : 6 channels
Channel layout                 : L R C LFE Ls Rs
Sampling rate                  : 48.0 kHz
Frame rate                     : 11.719 FPS (4096 SPF)
Bit depth                      : 16 bits
Compression mode               : Lossless
Delay relative to video        : 130 ms
Stream size                    : 46.6 MiB (6%)
Writing library                : libFLAC 1.3.1 (UTC 2014-11-25)
Language                       : English
Default                        : Yes
Forced                         : No

</pre>
</div>
<div class="bbCodeBlock bbCodeVfcHH HiddenContent">
<div class="attribution type">Hidden Content:</div>
<blockquote>You must either reply or click 'Like' to see the hidden information contained here.</blockquote>
</div><br>
<br>
<b><span style="color: rgb(255, 0, 0)">Credits goes to <a href="https://sharemania.us/members/1219/" class="username" data-user="1219, @TrollHD">@TrollHD</a> !!!<br>
<br>
<img src="styles/default/xenforo/smilies/super_man-48.png" class="mceSmilie" alt=":super:" title="Super Man    :super:"><img src="styles/default/xenforo/smilies/super_man-48.png" class="mceSmilie" alt=":super:" title="Super Man    :super:"><img src="styles/default/xenforo/smilies/super_man-48.png" class="mceSmilie" alt=":super:" title="Super Man    :super:"></span></b>
<div class="messageTextEndMarker">&nbsp;</div>
</blockquote>
</article>]]></description>
                <author><![CDATA[Dream66]]></author>
                </item>

                </channel></rss>